<svg xmlns="http://www.w3.org/2000/svg" xmlns:xlink="http://www.w3.org/1999/xlink" id="Layer_1" x="0px" y="0px" viewBox="0 0 216 216" style="enable-background:new 0 0 216 216;" xml:space="preserve"><style type="text/css">	.st0{fill:none;}	.st1{fill:#FFFFFF;}	.st2{fill:#751113;}	.st3{fill:#F29B1B;}</style><g>	<path d="M46.18,160.54c0,0.75-0.18,1.45-0.54,2.1c-0.35,0.65-0.9,1.18-1.66,1.58c-0.75,0.4-1.69,0.6-2.84,0.6H38.8v5.36H36v-13.96  h5.14c1.08,0,2,0.19,2.76,0.56c0.76,0.37,1.33,0.89,1.7,1.54C45.99,158.97,46.18,159.71,46.18,160.54z M41.02,162.56  c0.77,0,1.35-0.17,1.72-0.52c0.37-0.36,0.56-0.86,0.56-1.5c0-1.36-0.76-2.04-2.28-2.04H38.8v4.06H41.02z M55.37,170.18l-3.08-5.44  h-1.32v5.44h-2.8v-13.96h5.24c1.08,0,2,0.19,2.76,0.58c0.76,0.37,1.33,0.89,1.7,1.54c0.39,0.64,0.58,1.36,0.58,2.16  c0,0.92-0.27,1.75-0.8,2.5c-0.53,0.73-1.33,1.24-2.38,1.52l3.34,5.66H55.37z M50.97,162.64h2.34c0.76,0,1.33-0.18,1.7-0.54  c0.37-0.37,0.56-0.89,0.56-1.54c0-0.64-0.19-1.13-0.56-1.48c-0.37-0.36-0.94-0.54-1.7-0.54h-2.34V162.64z M67.46,170.32  c-1.31,0-2.51-0.31-3.6-0.92c-1.09-0.61-1.96-1.46-2.6-2.54c-0.64-1.09-0.96-2.33-0.96-3.7c0-1.36,0.32-2.58,0.96-3.66  c0.64-1.09,1.51-1.95,2.6-2.56c1.09-0.61,2.29-0.92,3.6-0.92c1.32,0,2.52,0.31,3.6,0.92c1.09,0.61,1.95,1.47,2.58,2.56  c0.64,1.08,0.96,2.3,0.96,3.66c0,1.37-0.32,2.61-0.96,3.7c-0.63,1.08-1.49,1.93-2.58,2.54C69.97,170.01,68.77,170.32,67.46,170.32z   M67.46,167.82c0.84,0,1.58-0.19,2.22-0.56c0.64-0.39,1.14-0.93,1.5-1.64c0.36-0.71,0.54-1.53,0.54-2.46  c0-0.93-0.18-1.75-0.54-2.44c-0.36-0.71-0.86-1.25-1.5-1.62c-0.64-0.37-1.38-0.56-2.22-0.56c-0.84,0-1.59,0.19-2.24,0.56  c-0.64,0.37-1.14,0.91-1.5,1.62c-0.36,0.69-0.54,1.51-0.54,2.44c0,0.93,0.18,1.75,0.54,2.46c0.36,0.71,0.86,1.25,1.5,1.64  C65.87,167.63,66.62,167.82,67.46,167.82z M85.3,156.22v2.26h-5.82v3.58h4.46v2.22h-4.46v5.9h-2.8v-13.96H85.3z M90.09,158.48v3.5  h4.7v2.22h-4.7v3.7h5.3v2.28h-8.1V156.2h8.1v2.28H90.09z M102.75,170.32c-0.97,0-1.85-0.17-2.64-0.5  c-0.77-0.33-1.39-0.81-1.84-1.44c-0.45-0.63-0.69-1.37-0.7-2.22h3c0.04,0.57,0.24,1.03,0.6,1.36c0.37,0.33,0.88,0.5,1.52,0.5  c0.65,0,1.17-0.15,1.54-0.46c0.37-0.32,0.56-0.73,0.56-1.24c0-0.41-0.13-0.75-0.38-1.02c-0.25-0.27-0.57-0.47-0.96-0.62  c-0.37-0.16-0.89-0.33-1.56-0.52c-0.91-0.27-1.65-0.53-2.22-0.78c-0.56-0.27-1.05-0.66-1.46-1.18c-0.4-0.53-0.6-1.24-0.6-2.12  c0-0.83,0.21-1.55,0.62-2.16c0.41-0.61,0.99-1.08,1.74-1.4c0.75-0.33,1.6-0.5,2.56-0.5c1.44,0,2.61,0.35,3.5,1.06  c0.91,0.69,1.41,1.67,1.5,2.92h-3.08c-0.03-0.48-0.23-0.87-0.62-1.18c-0.37-0.32-0.87-0.48-1.5-0.48c-0.55,0-0.99,0.14-1.32,0.42  c-0.32,0.28-0.48,0.69-0.48,1.22c0,0.37,0.12,0.69,0.36,0.94c0.25,0.24,0.56,0.44,0.92,0.6c0.37,0.15,0.89,0.32,1.56,0.52  c0.91,0.27,1.65,0.53,2.22,0.8c0.57,0.27,1.07,0.67,1.48,1.2c0.41,0.53,0.62,1.23,0.62,2.1c0,0.75-0.19,1.44-0.58,2.08  c-0.39,0.64-0.95,1.15-1.7,1.54C104.67,170.13,103.78,170.32,102.75,170.32z M114.94,170.32c-0.97,0-1.85-0.17-2.64-0.5  c-0.77-0.33-1.39-0.81-1.84-1.44c-0.45-0.63-0.69-1.37-0.7-2.22h3c0.04,0.57,0.24,1.03,0.6,1.36c0.37,0.33,0.88,0.5,1.52,0.5  c0.65,0,1.17-0.15,1.54-0.46c0.37-0.32,0.56-0.73,0.56-1.24c0-0.41-0.13-0.75-0.38-1.02c-0.25-0.27-0.57-0.47-0.96-0.62  c-0.37-0.16-0.89-0.33-1.56-0.52c-0.91-0.27-1.65-0.53-2.22-0.78c-0.56-0.27-1.05-0.66-1.46-1.18c-0.4-0.53-0.6-1.24-0.6-2.12  c0-0.83,0.21-1.55,0.62-2.16c0.41-0.61,0.99-1.08,1.74-1.4c0.75-0.33,1.6-0.5,2.56-0.5c1.44,0,2.61,0.35,3.5,1.06  c0.91,0.69,1.41,1.67,1.5,2.92h-3.08c-0.03-0.48-0.23-0.87-0.62-1.18c-0.37-0.32-0.87-0.48-1.5-0.48c-0.55,0-0.99,0.14-1.32,0.42  c-0.32,0.28-0.48,0.69-0.48,1.22c0,0.37,0.12,0.69,0.36,0.94c0.25,0.24,0.56,0.44,0.92,0.6c0.37,0.15,0.89,0.32,1.56,0.52  c0.91,0.27,1.65,0.53,2.22,0.8c0.57,0.27,1.07,0.67,1.48,1.2c0.41,0.53,0.62,1.23,0.62,2.1c0,0.75-0.19,1.44-0.58,2.08  c-0.39,0.64-0.95,1.15-1.7,1.54C116.85,170.13,115.97,170.32,114.94,170.32z M125.11,156.22v13.96h-2.8v-13.96H125.11z   M134.35,170.32c-1.31,0-2.51-0.31-3.6-0.92c-1.09-0.61-1.96-1.46-2.6-2.54c-0.64-1.09-0.96-2.33-0.96-3.7  c0-1.36,0.32-2.58,0.96-3.66c0.64-1.09,1.51-1.95,2.6-2.56c1.09-0.61,2.29-0.92,3.6-0.92c1.32,0,2.52,0.31,3.6,0.92  c1.09,0.61,1.95,1.47,2.58,2.56c0.64,1.08,0.96,2.3,0.96,3.66c0,1.37-0.32,2.61-0.96,3.7c-0.63,1.08-1.49,1.93-2.58,2.54  C136.86,170.01,135.66,170.32,134.35,170.32z M134.35,167.82c0.84,0,1.58-0.19,2.22-0.56c0.64-0.39,1.14-0.93,1.5-1.64  c0.36-0.71,0.54-1.53,0.54-2.46c0-0.93-0.18-1.75-0.54-2.44c-0.36-0.71-0.86-1.25-1.5-1.62c-0.64-0.37-1.38-0.56-2.22-0.56  c-0.84,0-1.59,0.19-2.24,0.56c-0.64,0.37-1.14,0.91-1.5,1.62c-0.36,0.69-0.54,1.51-0.54,2.44c0,0.93,0.18,1.75,0.54,2.46  c0.36,0.71,0.86,1.25,1.5,1.64C132.77,167.63,133.51,167.82,134.35,167.82z M155.52,170.18h-2.8l-6.34-9.58v9.58h-2.8V156.2h2.8  l6.34,9.6v-9.6h2.8V170.18z M166.84,167.52h-5.56l-0.92,2.66h-2.94l5.02-13.98h3.26l5.02,13.98h-2.96L166.84,167.52z   M166.08,165.28l-2.02-5.84l-2.02,5.84H166.08z M175.4,167.96h4.6v2.22h-7.4v-13.96h2.8V167.96z M42.88,178.22  c1.47,0,2.75,0.29,3.86,0.86c1.12,0.57,1.98,1.39,2.58,2.46c0.61,1.05,0.92,2.28,0.92,3.68s-0.31,2.63-0.92,3.68  c-0.6,1.04-1.46,1.85-2.58,2.42c-1.11,0.57-2.39,0.86-3.86,0.86H38v-13.96H42.88z M42.78,189.8c1.47,0,2.6-0.4,3.4-1.2  s1.2-1.93,1.2-3.38c0-1.45-0.4-2.59-1.2-3.4c-0.8-0.83-1.93-1.24-3.4-1.24H40.8v9.22H42.78z M55.14,180.48v3.5h4.7v2.22h-4.7v3.7  h5.3v2.28h-8.1V178.2h8.1v2.28H55.14z M75.52,178.22l-5.12,13.96H67l-5.12-13.96h3l3.84,11.1l3.82-11.1H75.52z M80,180.48v3.5h4.7  v2.22H80v3.7h5.3v2.28h-8.1V178.2h8.1v2.28H80z M90.64,189.96h4.6v2.22h-7.4v-13.96h2.8V189.96z M103.5,192.32  c-1.31,0-2.51-0.31-3.6-0.92c-1.09-0.61-1.96-1.46-2.6-2.54c-0.64-1.09-0.96-2.33-0.96-3.7c0-1.36,0.32-2.58,0.96-3.66  c0.64-1.09,1.51-1.95,2.6-2.56c1.09-0.61,2.29-0.92,3.6-0.92c1.32,0,2.52,0.31,3.6,0.92c1.09,0.61,1.95,1.47,2.58,2.56  c0.64,1.08,0.96,2.3,0.96,3.66c0,1.37-0.32,2.61-0.96,3.7c-0.63,1.08-1.49,1.93-2.58,2.54  C106.01,192.01,104.81,192.32,103.5,192.32z M103.5,189.82c0.84,0,1.58-0.19,2.22-0.56c0.64-0.39,1.14-0.93,1.5-1.64  c0.36-0.71,0.54-1.53,0.54-2.46c0-0.93-0.18-1.75-0.54-2.44c-0.36-0.71-0.86-1.25-1.5-1.62c-0.64-0.37-1.38-0.56-2.22-0.56  c-0.84,0-1.59,0.19-2.24,0.56c-0.64,0.37-1.14,0.91-1.5,1.62c-0.36,0.69-0.54,1.51-0.54,2.44c0,0.93,0.18,1.75,0.54,2.46  c0.36,0.71,0.86,1.25,1.5,1.64C101.92,189.63,102.66,189.82,103.5,189.82z M122.91,182.54c0,0.75-0.18,1.45-0.54,2.1  c-0.35,0.65-0.9,1.18-1.66,1.58c-0.75,0.4-1.69,0.6-2.84,0.6h-2.34v5.36h-2.8v-13.96h5.14c1.08,0,2,0.19,2.76,0.56  c0.76,0.37,1.33,0.89,1.7,1.54C122.71,180.97,122.91,181.71,122.91,182.54z M117.75,184.56c0.77,0,1.35-0.17,1.72-0.52  c0.37-0.36,0.56-0.86,0.56-1.5c0-1.36-0.76-2.04-2.28-2.04h-2.22v4.06H117.75z M140.12,178.22v13.96h-2.8v-9.08l-3.74,9.08h-2.12  l-3.76-9.08v9.08h-2.8v-13.96h3.18l4.44,10.38l4.44-10.38H140.12z M145.68,180.48v3.5h4.7v2.22h-4.7v3.7h5.3v2.28h-8.1V178.2h8.1  v2.28H145.68z M165.47,192.18h-2.8l-6.34-9.58v9.58h-2.8V178.2h2.8l6.34,9.6v-9.6h2.8V192.18z M177.74,178.22v2.26h-3.72v11.7h-2.8  v-11.7h-3.72v-2.26H177.74z"></path></g><g>	<g>		<defs>			<rect id="SVGID_1_" x="53.73" y="23.98" width="108.07" height="106.58"></rect>		</defs>		<clipPath id="SVGID_00000126318064512178231730000003562139975013861538_">			<use xlink:href="#SVGID_1_" style="overflow:visible;"></use>		</clipPath>	</g>	<g>		<path class="st0" d="M132.71,106.15c0.31-0.09,0.64-0.17,0.96-0.25c-0.91-0.45-1.76-0.99-2.55-1.6   C131.69,104.89,132.22,105.51,132.71,106.15z"></path>		<path class="st0" d="M81.86,105.9c0.32,0.08,0.64,0.16,0.96,0.25c0.48-0.63,1.01-1.25,1.59-1.85   C83.61,104.92,82.76,105.45,81.86,105.9z"></path>		<polygon class="st1" points="107.77,130.56 107.76,130.56 107.76,130.56   "></polygon>		<polygon class="st1" points="75.17,105.08 75.17,105.08 75.18,105.08   "></polygon>		<polygon class="st1" points="140.34,105.08 140.35,105.08 140.35,105.08   "></polygon>		<path class="st2" d="M116.03,101.86c-0.82,0.42-1.67,0.81-2.57,1.11c-4.8,1.6-9.8,1.06-13.97-1.1c-4.86,1.25-8.92,3.56-11.53,6.5   c3.87,2.32,6.32,5.68,6.32,9.42v3.78c0,1.55-1.26,2.89-3.06,3.27c-0.27,0.06-0.55,0.1-0.82,0.15c11.57,2.2,23.15,2.2,34.73,0   c-0.28-0.06-0.55-0.09-0.83-0.15c-1.79-0.38-3.06-1.72-3.06-3.27v-3.78c0-3.74,2.45-7.1,6.33-9.42   C124.95,105.41,120.89,103.1,116.03,101.86z"></path>		<path class="st2" d="M94.28,121.57v-3.78c0-3.74-2.45-7.09-6.32-9.42c-2.02,2.27-3.18,4.92-3.18,7.75v4.55   c0,1.86,1.52,3.48,3.68,3.93c0.65,0.14,1.3,0.26,1.94,0.38c0.27-0.05,0.55-0.09,0.82-0.15C93.02,124.46,94.28,123.11,94.28,121.57   z"></path>		<path class="st2" d="M121.24,117.78v3.78c0,1.55,1.26,2.89,3.06,3.27c0.28,0.06,0.55,0.1,0.83,0.15c0.65-0.12,1.3-0.25,1.95-0.39   c2.16-0.45,3.68-2.07,3.68-3.93v-4.55c0-2.83-1.16-5.48-3.18-7.75C123.69,110.69,121.24,114.04,121.24,117.78z"></path>		<path class="st0" d="M95.56,89.04c-1.59-6.75,2.58-13.51,9.32-15.1c6.74-1.59,13.49,2.59,15.08,9.33c1.2,5.1-0.89,10.2-4.89,13.08   c2.09,0.39,4.1,0.94,6,1.64c4.24-4.67,5.92-11.43,3.78-17.85c-3.15-9.45-13.35-14.56-22.79-11.41   c-9.44,3.15-14.54,13.37-11.4,22.82c0.82,2.47,2.14,4.64,3.78,6.44c1.9-0.71,3.92-1.26,6.01-1.65   C98.09,94.65,96.29,92.11,95.56,89.04z"></path>		<path class="st2" d="M119.97,83.27c-1.59-6.75-8.34-10.93-15.08-9.33c-6.74,1.59-10.91,8.35-9.32,15.1   c0.72,3.08,2.53,5.61,4.91,7.31c2.35-0.44,4.8-0.68,7.29-0.68c2.5,0,4.95,0.24,7.31,0.68C119.08,93.48,121.17,88.37,119.97,83.27z   "></path>		<path class="st2" d="M100.47,96.35c2.84,2.04,6.51,2.89,10.18,2.02c1.65-0.39,3.14-1.09,4.43-2.02c-2.36-0.44-4.81-0.68-7.31-0.68   C105.27,95.67,102.82,95.92,100.47,96.35z"></path>	</g>	<path class="st3" d="M79.48,120.57v-4.9c0-3.41,1.16-6.65,3.34-9.52c-0.31-0.09-0.64-0.17-0.96-0.25  c-2.08-0.52-4.33-0.82-6.69-0.82c-2.35,0-4.6,0.3-6.68,0.82c-7.25,1.8-12.42,6.43-12.42,11.88v3.78c0,1.55,1.26,2.89,3.06,3.27  c7.65,1.62,15.3,2.05,22.95,1.36C80.46,124.75,79.48,122.75,79.48,120.57z"></path>	<path class="st2" d="M150.04,69.72c-0.2-1.04-0.46-2.06-0.73-3.07c0,0,0,0,0,0c-0.01-0.04-0.03-0.09-0.04-0.13  c-0.14-0.52-0.29-1.03-0.46-1.54c0-0.01-0.01-0.03-0.01-0.04c-0.47-1.47-1.01-2.9-1.63-4.29c-0.11-0.25-0.22-0.49-0.33-0.74  c-0.13-0.28-0.27-0.57-0.41-0.85c-0.16-0.33-0.33-0.67-0.5-1c-0.12-0.22-0.23-0.44-0.35-0.66c-0.23-0.43-0.47-0.85-0.72-1.27  c-0.08-0.13-0.15-0.26-0.22-0.38c-0.34-0.57-0.7-1.13-1.06-1.68l7.18-9.46l-9.55-9.56l0,0l0,0l-9.45,7.19  c-4.65-3.12-9.94-5.36-15.63-6.48l-1.6-11.78h-0.01h-13.49H101l-1.6,11.78c-5.69,1.12-10.98,3.36-15.63,6.48l-9.45-7.19l0,0l0,0  l-9.55,9.56l7.18,9.46c-0.05,0.07-0.08,0.14-0.13,0.21c-0.45,0.68-0.87,1.37-1.28,2.07c-0.13,0.23-0.27,0.46-0.4,0.69  c-0.4,0.71-0.78,1.44-1.14,2.18c-0.04,0.08-0.08,0.15-0.11,0.23c-0.41,0.85-0.78,1.72-1.14,2.61c-0.06,0.15-0.11,0.29-0.17,0.44  c-0.33,0.84-0.63,1.69-0.9,2.56c-0.01,0.04-0.03,0.08-0.04,0.12c0,0,0,0,0,0c-0.47,1.49-0.86,3.01-1.17,4.56l-11.76,1.6v13.52  l7.83,1.07c2.42-5.1,7.6-8.64,13.61-8.64c0.93,0,1.84,0.1,2.72,0.26c0.03-1.5,0.17-2.98,0.41-4.42c0.02-0.1,0.04-0.19,0.05-0.29  c0.07-0.37,0.14-0.74,0.22-1.1c0.03-0.13,0.06-0.26,0.09-0.39c0.08-0.33,0.16-0.66,0.24-0.98c0.04-0.14,0.08-0.29,0.12-0.43  c0.09-0.31,0.18-0.61,0.28-0.92c0.05-0.15,0.1-0.3,0.15-0.45c0.1-0.29,0.2-0.59,0.31-0.88c0.06-0.15,0.11-0.3,0.17-0.45  c0.11-0.29,0.23-0.58,0.35-0.86c0.06-0.14,0.12-0.28,0.18-0.43c0.13-0.29,0.27-0.58,0.4-0.87c0.06-0.13,0.12-0.26,0.19-0.39  c0.15-0.31,0.31-0.61,0.48-0.91c0.06-0.1,0.11-0.21,0.17-0.31c0.21-0.37,0.43-0.74,0.65-1.11c0.01-0.02,0.03-0.05,0.04-0.07  c0.25-0.4,0.5-0.79,0.77-1.17c0.04-0.05,0.08-0.11,0.12-0.16c0.22-0.32,0.45-0.63,0.68-0.94c0.09-0.12,0.18-0.23,0.27-0.35  c0.19-0.24,0.38-0.48,0.57-0.71c0.11-0.13,0.23-0.27,0.34-0.4c0.18-0.21,0.37-0.42,0.55-0.63c0.12-0.14,0.25-0.27,0.38-0.41  c0.18-0.2,0.37-0.39,0.56-0.58c0.13-0.14,0.27-0.27,0.41-0.4c0.19-0.18,0.38-0.36,0.58-0.54c0.14-0.13,0.29-0.26,0.43-0.39  c0.2-0.17,0.39-0.34,0.6-0.51c0.15-0.13,0.3-0.25,0.45-0.37c0.21-0.16,0.41-0.33,0.62-0.48c0.15-0.12,0.3-0.23,0.46-0.35  c0.22-0.16,0.45-0.32,0.67-0.47c0.15-0.1,0.3-0.21,0.45-0.31c0.25-0.17,0.51-0.33,0.77-0.49c0.13-0.08,0.25-0.16,0.38-0.24  c0.39-0.23,0.78-0.46,1.18-0.67c0.09-0.05,0.19-0.1,0.29-0.15c0.31-0.16,0.62-0.32,0.94-0.47c0.16-0.08,0.32-0.15,0.49-0.22  c0.25-0.12,0.51-0.23,0.77-0.34c0.18-0.08,0.36-0.15,0.55-0.22c0.25-0.1,0.49-0.2,0.74-0.29c0.19-0.07,0.38-0.14,0.57-0.2  c0.25-0.09,0.49-0.17,0.74-0.25c0.2-0.06,0.4-0.12,0.6-0.18c0.25-0.07,0.5-0.14,0.75-0.21c0.2-0.05,0.4-0.11,0.61-0.15  c0.25-0.06,0.51-0.12,0.77-0.18c0.2-0.04,0.41-0.09,0.61-0.13c0.26-0.05,0.53-0.1,0.8-0.14c0.2-0.03,0.4-0.07,0.6-0.1  c0.28-0.04,0.56-0.07,0.85-0.11c0.19-0.02,0.38-0.05,0.57-0.07c0.32-0.03,0.64-0.05,0.96-0.07c0.16-0.01,0.32-0.03,0.48-0.03  c0.48-0.02,0.96-0.04,1.45-0.04c0,0,0.01,0,0.01,0c0,0,0,0,0.01,0c0.48,0,0.95,0.01,1.42,0.04c0.16,0.01,0.32,0.02,0.47,0.03  c0.31,0.02,0.63,0.04,0.94,0.07c0.18,0.02,0.37,0.04,0.55,0.06c0.28,0.03,0.57,0.07,0.85,0.11c0.19,0.03,0.38,0.06,0.57,0.09  c0.27,0.04,0.54,0.09,0.81,0.14c0.19,0.04,0.38,0.07,0.57,0.11c0.27,0.06,0.54,0.12,0.81,0.18c0.18,0.04,0.36,0.09,0.54,0.13  c0.29,0.07,0.57,0.16,0.86,0.24c0.16,0.05,0.31,0.09,0.47,0.14c0.42,0.13,0.85,0.27,1.26,0.42c0.13,0.05,0.26,0.1,0.39,0.15  c0.29,0.11,0.58,0.22,0.87,0.34c0.18,0.08,0.36,0.16,0.54,0.23c0.23,0.1,0.46,0.2,0.69,0.31c0.19,0.09,0.38,0.18,0.57,0.28  c0.21,0.1,0.42,0.21,0.63,0.32c0.19,0.1,0.38,0.2,0.57,0.31c0.2,0.11,0.4,0.22,0.6,0.34c0.19,0.11,0.38,0.22,0.57,0.34  c0.19,0.12,0.38,0.24,0.57,0.36c0.19,0.12,0.37,0.24,0.55,0.36c0.19,0.13,0.37,0.26,0.56,0.39c0.18,0.13,0.36,0.25,0.53,0.38  c0.33,0.25,0.66,0.5,0.98,0.76c0.18,0.15,0.36,0.31,0.54,0.46c0.16,0.13,0.31,0.26,0.47,0.4c0.18,0.16,0.36,0.33,0.53,0.49  c0.15,0.13,0.29,0.27,0.43,0.41c0.18,0.17,0.35,0.34,0.52,0.52c0.14,0.14,0.27,0.28,0.41,0.42c0.17,0.18,0.34,0.36,0.51,0.55  c0.13,0.14,0.25,0.28,0.38,0.43c0.17,0.19,0.33,0.38,0.49,0.58c0.12,0.14,0.23,0.28,0.34,0.43c0.16,0.2,0.33,0.41,0.48,0.62  c0.09,0.12,0.18,0.25,0.27,0.37c0.37,0.5,0.72,1.01,1.05,1.53c0.04,0.06,0.08,0.12,0.12,0.18c0.14,0.23,0.28,0.47,0.42,0.7  c0.09,0.15,0.18,0.29,0.26,0.44c0.13,0.23,0.25,0.46,0.37,0.69c0.09,0.16,0.17,0.32,0.26,0.49c0.12,0.23,0.23,0.46,0.34,0.69  c0.08,0.17,0.16,0.34,0.24,0.51c0.11,0.23,0.21,0.46,0.31,0.7c0.08,0.18,0.15,0.36,0.22,0.54c0.1,0.24,0.19,0.47,0.28,0.71  c0.07,0.18,0.13,0.36,0.19,0.54c0.09,0.24,0.17,0.49,0.25,0.73c0.06,0.18,0.11,0.36,0.16,0.54c0.14,0.45,0.26,0.91,0.38,1.37  c0.54,2.15,0.85,4.39,0.89,6.7c0.88-0.16,1.79-0.26,2.72-0.26c6.02,0,11.2,3.54,13.61,8.64l7.83-1.07V71.33L150.04,69.72z"></path>	<ellipse class="st3" cx="75.18" cy="92.38" rx="9.07" ry="9.08"></ellipse>	<path class="st3" d="M135.88,120.57v-4.9c0-3.41-1.16-6.65-3.34-9.52c0.31-0.09,0.64-0.17,0.96-0.25c2.08-0.52,4.33-0.82,6.69-0.82  c2.35,0,4.6,0.3,6.68,0.82c7.25,1.8,12.42,6.43,12.42,11.88v3.78c0,1.55-1.26,2.89-3.06,3.27c-7.65,1.62-15.3,2.05-22.95,1.36  C134.9,124.75,135.88,122.75,135.88,120.57z"></path>	<ellipse class="st3" cx="140.18" cy="92.38" rx="9.07" ry="9.08"></ellipse></g></svg>